<svg xml:space="preserve" style="max-height: 500px" viewBox="438 258 628 486" y="0px" x="0px" xmlns:xlink="http://www.w3.org/1999/xlink" xmlns="http://www.w3.org/2000/svg" id="Layer_1" version="1.1" width="628" height="486">
<style type="text/css">
	.st0{fill:#36E3FF;}
	.st1{fill:#36E3FF;stroke:#36E3FF;stroke-width:2;stroke-miterlimit:10;}
	.st2{fill:#29ABE2;}
	.st3{fill:#F90214;}
	.st4{fill:#11ECFF;}
</style>
<g>
	<path d="M486.51,668.48c-8.17,0-16.34,0.07-24.51,0.07v51.99h9.8v-15.3h14.71&#10;&#9;&#9;C511.98,705.24,511.91,668.48,486.51,668.48z M486.51,696.25H471.8v-18.42h14.71C498.99,677.83,499.06,696.25,486.51,696.25z" class="st0"/>
	<path d="M541.09,667.51c-17.97,0-26.73,13.74-26.73,27.41c0,13.66,8.46,26.81,26.73,26.81&#10;&#9;&#9;c18.27,0,26.52-13.45,26.67-26.89C567.9,681.25,558.99,667.51,541.09,667.51z M541.09,712.74c-12.25,0-16.86-9.14-17.08-17.68&#10;&#9;&#9;c-0.22-8.76,4.83-18.64,17.08-18.64c12.26,0,17.16,9.81,17.01,18.57C557.95,703.53,553.35,712.74,541.09,712.74z" class="st0"/>
	<path d="M598.05,693.73l23.1-24.88v-0.3h-12.18l-19.75,21.98v-21.98h-9.81v51.99h9.81v-23.02l21.76,23.02h12.1v-0.6&#10;&#9;&#9;L598.05,693.73z" class="st0"/>
	<path d="M671.28,678.06v-9.51h-38.92v51.99h38.92v-9.66h-29.19v-11.73h28.15v-9.14h-28.15v-11.95H671.28z" class="st0"/>
	<path d="M713.69,702.12c9.87-2.01,13.14-9.21,13.14-16.34c0-8.99-6.46-17.16-18.71-17.23&#10;&#9;&#9;c-8.25,0-16.49-0.07-24.74-0.07v52.06h9.81v-17.38h9.43l15.15,17.38h11.66v-0.67L713.69,702.12z M693.19,694.32v-16.64h14.93&#10;&#9;&#9;c6.16,0,8.91,4.16,8.91,8.32s-2.68,8.32-8.91,8.32H693.19z" class="st0"/>
	<path d="M787.73,702.12c9.88-2.01,13.14-9.21,13.14-16.34c0-8.99-6.46-17.16-18.71-17.23&#10;&#9;&#9;c-8.25,0-16.49-0.07-24.73-0.07v52.06h9.8v-17.38h9.43l15.15,17.38h11.66v-0.67L787.73,702.12z M767.23,694.32v-16.64h14.93&#10;&#9;&#9;c6.16,0,8.91,4.16,8.91,8.32s-2.67,8.32-8.91,8.32H767.23z" class="st0"/>
	<path d="M840.6,668.55h-10.69l-23.32,51.99h10.62l4.46-9.81h27.18l4.38,9.81h10.69L840.6,668.55z M825.6,701.6&#10;&#9;&#9;l9.66-22.13l9.65,22.13H825.6z" class="st0"/>
	<path d="M894.15,668.55h-20.42v51.99h20.42c18.19,0,26.21-13.3,25.99-26.44C919.92,681.25,911.97,668.55,894.15,668.55&#10;&#9;&#9;z M894.15,711.11h-10.7v-33.28h10.7c11.29,0,16.04,8.1,16.26,16.19C910.64,702.49,905.96,711.11,894.15,711.11z" class="st0"/>
	<path d="M959.72,668.55h-10.69l-23.32,51.99h10.62l4.46-9.81h27.18l4.38,9.81h10.69L959.72,668.55z M944.72,701.6&#10;&#9;&#9;l9.66-22.13l9.65,22.13H944.72z" class="st0"/>
	<path d="M1022.26,702.12c9.87-2.01,13.14-9.21,13.14-16.34c0-8.99-6.46-17.16-18.72-17.23&#10;&#9;&#9;c-8.24,0-16.48-0.07-24.73-0.07v52.06h9.81v-17.38h9.43l15.15,17.38H1038v-0.67L1022.26,702.12z M1001.76,694.32v-16.64h14.92&#10;&#9;&#9;c6.17,0,8.92,4.16,8.92,8.32s-2.68,8.32-8.92,8.32H1001.76z" class="st0"/>
</g>
<g>
	<path d="M825.21,428.18c-7.06-13.69-17.76-25.21-30.81-33.26c-12.84-7.94-27.97-12.52-44.14-12.52&#10;&#9;&#9;c-46.46,0-84.26,37.8-84.26,84.26s37.8,84.26,84.26,84.26c46.46,0,84.26-37.8,84.26-84.26&#10;&#9;&#9;C834.52,452.81,831.16,439.72,825.21,428.18z M750.26,548.18c-44.95,0-81.52-36.57-81.52-81.52s36.57-81.52,81.52-81.52&#10;&#9;&#9;c15.52,0,30.04,4.36,42.4,11.92c12.82,7.84,23.32,19.12,30.21,32.55c5.69,11.12,8.91,23.71,8.91,37.05&#10;&#9;&#9;C831.78,511.61,795.21,548.18,750.26,548.18z" class="st1"/>
</g>
<path d="M914.08,373.48l-2.44,1.51l-26.39,16.23l-3.87,2.39l-2.42,1.49l-25.57,15.73l-1.5,0.92l-0.96,0.6l-2.35,1.44&#10;&#9;l-5.89,3.62l-17.48,10.77l-2.34,1.43l-39.38,24.24l-2.37,1.46l-13.96,8.59l-10.05,6.18l-8.91-18.49l1.67-2.05l11.32-13.89l1.83-2.24&#10;&#9;l29.64-36.35l1.74-2.14l17.43-21.37l1.73-2.13l20.85-25.57l1.79-2.2l22.49-27.59l1.81-2.21c8.09,5.85,15.77,12.4,22.97,19.6&#10;&#9;C895.57,345.55,905.82,359.01,914.08,373.48z" class="st2"/>
<g>
	<g>
		<path d="M845.36,360c3.72,8.59,9.75,15.01,18.23,19.06c-4.13,1.53-7.46,4.35-10.57,7.48&#10;&#9;&#9;&#9;c-3.12,3.15-5.83,6.59-7.58,10.64c-3.99-8.15-9.89-14.41-18.16-18.18C835.81,375.14,841.8,368.72,845.36,360z" class="st3"/>
	</g>
</g>
<g>
	<g>
		<g>
			<g>
				<path d="M914.95,372.99c-8.36-14.64-18.71-28.18-30.77-40.24c-7.2-7.2-14.97-13.83-23.09-19.7&#10;&#9;&#9;&#9;&#9;&#9;c-32.28-23.4-70.61-35.77-110.83-35.77c-50.58,0-98.14,19.7-133.92,55.47c-35.77,35.77-55.46,83.32-55.46,133.92&#10;&#9;&#9;&#9;&#9;&#9;c0,50.59,19.7,98.15,55.46,133.92s83.33,55.46,133.92,55.46s98.15-19.7,133.92-55.46s55.46-83.33,55.46-133.92&#10;&#9;&#9;&#9;&#9;&#9;C939.64,433.68,931.1,401.28,914.95,372.99z M934.9,466.67c0,101.81-82.83,184.64-184.64,184.64&#10;&#9;&#9;&#9;&#9;&#9;c-101.81,0-184.64-82.83-184.64-184.64c0-101.82,82.83-184.65,184.64-184.65c38.99,0,76.28,12.05,107.84,34.86&#10;&#9;&#9;&#9;&#9;&#9;c21.4,15.44,39.61,35.71,52.67,58.61C926.56,403.16,934.9,434.68,934.9,466.67z" class="st0"/>
				<path d="M882.25,393.13c-1.18-2.12-2.48-4.31-3.99-6.72l-0.12-0.19c-0.44-0.69-0.88-1.38-1.33-2.07&#10;&#9;&#9;&#9;&#9;&#9;c-5.69-8.7-12.34-16.86-19.76-24.27c-2.78-2.78-5.68-5.47-8.63-7.99c-3.74-3.21-7.66-6.25-11.65-9.05&#10;&#9;&#9;&#9;&#9;&#9;c-25.34-17.79-55.25-27.19-86.51-27.19c-36.07,0-70.93,12.87-98.16,36.24c-2.95,2.53-5.85,5.22-8.63,7.99&#10;&#9;&#9;&#9;&#9;&#9;c-11.03,11.02-20.23,23.55-27.35,37.24c-11.04,21.24-16.88,45.29-16.88,69.55s5.84,48.31,16.88,69.55&#10;&#9;&#9;&#9;&#9;&#9;c7.12,13.69,16.32,26.21,27.35,37.24c2.78,2.78,5.68,5.47,8.63,7.99c27.23,23.37,62.09,36.24,98.16,36.24&#10;&#9;&#9;&#9;&#9;&#9;c36.07,0,70.93-12.87,98.16-36.24c2.94-2.52,5.85-5.21,8.63-7.99c11.03-11.02,20.23-23.55,27.35-37.24&#10;&#9;&#9;&#9;&#9;&#9;c11.04-21.24,16.88-45.29,16.88-69.55c0-24.26-5.84-48.31-16.88-69.55C883.7,395.78,882.98,394.44,882.25,393.13z&#10;&#9;&#9;&#9;&#9;&#9; M896.54,466.67c0,22.95-5.19,44.93-15.42,65.33l0,0c-2.89,5.77-6.21,11.43-9.88,16.81c-2.17,3.2-4.53,6.38-7,9.46&#10;&#9;&#9;&#9;&#9;&#9;c-2.19,2.73-4.58,5.48-7.1,8.18c-0.5,0.54-1,1.07-1.51,1.6c-3.77,3.92-7.82,7.69-12.04,11.18&#10;&#9;&#9;&#9;&#9;&#9;c-26.18,21.75-59.33,33.73-93.32,33.73c-34,0-67.14-11.98-93.32-33.73c-15.76-13.08-28.39-28.96-37.54-47.22&#10;&#9;&#9;&#9;&#9;&#9;c-10.23-20.4-15.42-42.38-15.42-65.33c0-22.95,5.19-44.93,15.42-65.33c3.14-6.27,6.77-12.38,10.8-18.16&#10;&#9;&#9;&#9;&#9;&#9;c5.7-8.17,12.25-15.78,19.47-22.61c2.36-2.25,4.81-4.42,7.27-6.46c26.18-21.75,59.33-33.73,93.32-33.73&#10;&#9;&#9;&#9;&#9;&#9;c30.06,0,58.96,9.09,83.58,26.29c3.37,2.36,6.65,4.86,9.75,7.44c2.47,2.04,4.95,4.25,7.38,6.56c0.8,0.76,1.6,1.53,2.39,2.32&#10;&#9;&#9;&#9;&#9;&#9;l0.29,0.3c5.59,5.58,10.76,11.65,15.35,18.04c1.78,2.46,3.47,4.96,5.01,7.42c1.45,2.28,2.82,4.59,4.08,6.84&#10;&#9;&#9;&#9;&#9;&#9;c1.06,1.92,2.08,3.85,3.03,5.74C891.35,421.73,896.54,443.71,896.54,466.67z" class="st0"/>
				<path d="M851.81,411.88c-3.29-6.06-7.13-11.85-11.42-17.21c-3.12-3.89-6.51-7.61-10.1-11.06&#10;&#9;&#9;&#9;&#9;&#9;c-2.94-2.84-6.04-5.53-9.23-8.01c-2.28-1.78-4.62-3.46-6.95-5c-18.96-12.64-41.04-19.33-63.86-19.33&#10;&#9;&#9;&#9;&#9;&#9;c-25.89,0-50.38,8.41-70.8,24.33c-4.63,3.62-9.01,7.59-13,11.81c-2.27,2.39-4.5,4.95-6.62,7.63c-2.02,2.55-3.93,5.18-5.67,7.8&#10;&#9;&#9;&#9;&#9;&#9;c-0.35,0.5-0.67,1-1.03,1.56c-2.89,4.49-5.48,9.21-7.7,14.02c-7.02,15.19-10.58,31.42-10.58,48.25s3.56,33.06,10.58,48.25&#10;&#9;&#9;&#9;&#9;&#9;c2.5,5.42,5.47,10.72,8.84,15.76c3.31,4.96,7.04,9.7,11.08,14.08c4.33,4.71,9.08,9.08,14.09,12.98&#10;&#9;&#9;&#9;&#9;&#9;c20.43,15.92,44.91,24.33,70.8,24.33s50.38-8.41,70.81-24.33c5.11-3.99,9.9-8.41,14.25-13.16c0.39-0.42,0.77-0.84,1.14-1.28&#10;&#9;&#9;&#9;&#9;&#9;l0.15-0.15c3.17-3.58,6.15-7.39,8.84-11.31c0.33-0.46,0.65-0.93,0.95-1.4c3.31-4.97,6.24-10.2,8.69-15.52&#10;&#9;&#9;&#9;&#9;&#9;c7.02-15.19,10.58-31.42,10.58-48.25s-3.56-33.06-10.58-48.25C854.06,416.21,852.96,414.01,851.81,411.88z M860.92,466.67&#10;&#9;&#9;&#9;&#9;&#9;c0,16.58-3.59,32.52-10.67,47.39c-7.2,15.14-17.96,28.68-31.12,39.17c-19.77,15.77-43.58,24.1-68.87,24.1s-49.1-8.33-68.87-24.1&#10;&#9;&#9;&#9;&#9;&#9;c-4.94-3.93-9.59-8.34-13.83-13.12c-2.99-3.34-5.78-6.89-8.31-10.54c-3.39-4.88-6.41-10.1-8.98-15.5&#10;&#9;&#9;&#9;&#9;&#9;c-7.08-14.87-10.67-30.82-10.67-47.39c0-16.57,3.59-32.52,10.67-47.39c7.2-15.14,17.96-28.68,31.12-39.17&#10;&#9;&#9;&#9;&#9;&#9;c19.77-15.77,43.58-24.1,68.87-24.1c21.8,0,42.9,6.36,61.02,18.38c2.72,1.8,5.36,3.72,7.85,5.72c2.46,1.96,4.89,4.06,7.21,6.28&#10;&#9;&#9;&#9;&#9;&#9;c0.81,0.76,1.61,1.54,2.4,2.33c7.54,7.59,13.93,16.19,18.97,25.57c0.87,1.58,1.7,3.22,2.54,5&#10;&#9;&#9;&#9;&#9;&#9;C857.33,434.15,860.92,450.09,860.92,466.67z" class="st0"/>
				<path d="M794.93,394.07c-13.4-8.29-28.85-12.67-44.67-12.67c-47.01,0-85.26,38.25-85.26,85.26&#10;&#9;&#9;&#9;&#9;&#9;s38.25,85.26,85.26,85.26s85.26-38.25,85.26-85.26c0-13.52-3.26-26.99-9.42-38.94C818.96,413.89,808.18,402.25,794.93,394.07z&#10;&#9;&#9;&#9;&#9;&#9; M830.78,466.67c0,44.4-36.12,80.52-80.52,80.52c-44.4,0-80.52-36.12-80.52-80.52c0-44.4,36.12-80.52,80.52-80.52&#10;&#9;&#9;&#9;&#9;&#9;c14.8,0,29.29,4.07,41.88,11.77c12.72,7.78,23.04,18.9,29.84,32.15C827.82,441.48,830.78,453.79,830.78,466.67z" class="st0"/>
				<path d="M763.38,432.48c-4.18-1.62-8.6-2.44-13.12-2.44c-20.19,0-36.62,16.43-36.62,36.62s16.43,36.62,36.62,36.62&#10;&#9;&#9;&#9;&#9;&#9;s36.62-16.43,36.62-36.62c0-4.55-0.83-8.98-2.46-13.17C780.69,443.84,773.02,436.18,763.38,432.48z M782.14,466.67&#10;&#9;&#9;&#9;&#9;&#9;c0,17.58-14.3,31.88-31.88,31.88s-31.88-14.3-31.88-31.88c0-17.58,14.3-31.88,31.88-31.88c3.63,0,7.2,0.61,10.6,1.81&#10;&#9;&#9;&#9;&#9;&#9;c8.98,3.18,16.03,10.13,19.33,19.06C781.48,459.17,782.14,462.88,782.14,466.67z" class="st0"/>
			</g>
			<g>
				<path d="M767.16,463.9c-1.32-8.14-8.4-14.37-16.9-14.37c-0.13,0-0.26,0-0.39,0.01c-9.26,0.2-16.74,7.81-16.74,17.12&#10;&#9;&#9;&#9;&#9;&#9;c0,9.44,7.69,17.12,17.13,17.12s17.13-7.68,17.13-17.12C767.39,465.72,767.31,464.8,767.16,463.9z" class="st0"/>
			</g>
		</g>
	</g>
	<g>
		<g>
			<path d="M884.18,332.74c-7.2-7.19-14.94-13.81-23.05-19.67l-0.63,0.78l-2.44,2.99c0.01,0.01,0.03,0.02,0.04,0.03&#10;&#9;&#9;&#9;&#9;c21.41,15.45,39.62,35.71,52.67,58.62c0,0.01,0.01,0.01,0.01,0.02v0.01l0.86-0.53l2.44-1.51l0.86-0.52&#10;&#9;&#9;&#9;&#9;C906.58,358.33,896.23,344.79,884.18,332.74z" class="st4"/>
			<path d="M767.16,463.9c-1.32-8.14-8.4-14.37-16.9-14.37c-0.12,0-0.25,0-0.37,0.01c-0.01,0-0.01,0-0.02,0l-1.67,2.05&#10;&#9;&#9;&#9;&#9;l0,0l8.91,18.49L767.16,463.9z" class="st4"/>
			<path d="M763.69,432.6h-0.01l-0.66,0.81l-1.83,2.24l-0.67,0.83c0,0,0,0,0.01,0c0.11,0.03,0.22,0.07,0.33,0.11&#10;&#9;&#9;&#9;&#9;c8.98,3.18,16.02,10.13,19.32,19.07c0.02,0.06,0.04,0.12,0.06,0.18l0.01,0.01l0.87-0.54l3.23-1.99&#10;&#9;&#9;&#9;&#9;C780.64,443.85,773.13,436.32,763.69,432.6z" class="st4"/>
			<path d="M795.04,394.14l-0.03,0.04L795.04,394.14l-1.19,1.46l-1.19,1.46l-0.63,0.78c0.04,0.03,0.07,0.05,0.11,0.07&#10;&#9;&#9;&#9;&#9;c12.72,7.78,23.04,18.9,29.84,32.16c0.01,0.02,0.02,0.05,0.03,0.07l4.05-2.49C818.94,413.88,808.22,402.3,795.04,394.14z" class="st4"/>
			<path d="M830.29,383.6c-2.94-2.84-6.04-5.53-9.22-8.01c-2.25-1.76-4.57-3.42-6.87-4.95l-3,3.69&#10;&#9;&#9;&#9;&#9;c0.03,0.01,0.05,0.03,0.08,0.05c2.71,1.8,5.35,3.73,7.85,5.72c2.46,1.96,4.88,4.07,7.2,6.28c0.82,0.76,1.61,1.53,2.4,2.32&#10;&#9;&#9;&#9;&#9;c7.55,7.6,13.93,16.2,18.97,25.57c0.01,0.02,0.02,0.03,0.02,0.05h0.01l4.05-2.5c-3.28-6.04-7.11-11.81-11.39-17.16&#10;&#9;&#9;&#9;&#9;C837.27,390.78,833.88,387.05,830.29,383.6z" class="st4"/>
			<path d="M878.14,386.21c-0.44-0.69-0.88-1.38-1.33-2.07c-5.7-8.69-12.34-16.86-19.76-24.27&#10;&#9;&#9;&#9;&#9;c-2.78-2.77-5.68-5.46-8.63-7.99c-3.72-3.19-7.62-6.22-11.59-9l-3.05,3.75c0.02,0.01,0.04,0.03,0.06,0.04&#10;&#9;&#9;&#9;&#9;c3.37,2.36,6.65,4.86,9.74,7.44c2.47,2.04,4.95,4.25,7.38,6.56c0.81,0.76,1.6,1.53,2.39,2.31l0.29,0.31&#10;&#9;&#9;&#9;&#9;c5.6,5.58,10.76,11.65,15.35,18.04c1.78,2.46,3.47,4.95,5.01,7.41c1.45,2.29,2.82,4.59,4.08,6.84c0.01,0.01,0.01,0.03,0.02,0.04&#10;&#9;&#9;&#9;&#9;l0.01,0.01l0.85-0.53l0,0l3.27-2.01v-0.01c-1.18-2.1-2.47-4.29-3.97-6.68L878.14,386.21z" class="st4"/>
		</g>
	</g>
</g>
<g>
	<g>
		<path d="M870.98,545.14c-1.5-2.86-3.91-4.51-7.19-4.66c-3.17-0.15-5.71,1.32-8.03,3.35c0.6-0.79,1.34-1.42,2.03-2.08&#10;&#9;&#9;&#9;c2.69-2.56,3.99-5.6,2.77-9.26c-1.12-3.33-3.61-5.15-7.07-5.67c-3.02-0.44-6.03,0.74-7.93,3.06c-0.29,0.35-0.56,0.72-0.79,1.12&#10;&#9;&#9;&#9;c-0.05,0.08-0.09,0.17-0.14,0.25c-1.5,2.79-1.17,6.35,0.92,9.01c0.72,0.9,1.56,1.71,2.35,2.57c0.35,0.38,0.72,0.76,1.07,1.14&#10;&#9;&#9;&#9;c-1.15-0.74-2.19-1.6-3.33-2.31c-3.13-1.97-7.01-1.62-9.78,0.82c-0.02,0.02-0.04,0.04-0.06,0.05c-0.47,0.43-0.87,0.88-1.21,1.36&#10;&#9;&#9;&#9;c-0.01,0.01-0.01,0.01-0.02,0.02c-1.08,1.52-1.57,3.31-1.72,5.27c-0.3,3.76,1.96,7.67,5.37,9.2c3.56,1.61,7.97,0.75,10.54-2.2&#10;&#9;&#9;&#9;c1-1.14,1.74-2.5,2.63-3.83c0.09,6.31-0.86,12.18-6.54,16.37h14.9c-0.7-0.51-1.33-1.05-1.89-1.61c-4.1-4.11-4.68-9.46-4.55-15.09&#10;&#9;&#9;&#9;c1.14,2.65,2.72,4.92,5.38,6.21c2.09,1.01,4.23,1.23,6.32,0.65c0.63-0.18,1.26-0.43,1.88-0.76c3.36-1.77,5.25-5.22,5.17-8.76&#10;&#9;&#9;&#9;C872.04,547.93,871.69,546.49,870.98,545.14z"/>
	</g>
	<g>
		<path d="M648,565.55c-3.1-5.38-8-9.15-12.11-13.62c-1.83-1.99-3.7-4.02-5.1-6.3c-3.21-5.24-0.86-12.39,4.64-14.83&#10;&#9;&#9;&#9;c4.93-2.19,10.56-0.18,12.66,4.73c0.1-0.23,0.15-0.36,0.2-0.49c1.81-4.48,7.3-5.75,11.12-4.7c6.43,1.75,9.46,9.42,5.89,15.38&#10;&#9;&#9;&#9;c-1.34,2.23-3.21,4.17-4.99,6.1c-2.68,2.89-5.56,5.59-8.23,8.49C650.61,561.89,649.4,563.72,648,565.55z" class="st3"/>
	</g>
</g>
<path d="M666.08,379.98c-1.71-3.3-4.49-5.7-6.98-8.35c-2.94-3.14-5.83-6.34-8.66-9.59c-0.58-0.66-1.02-1.43-1.46-2.2&#10;&#9;c-0.22-0.38-0.44-0.76-0.67-1.12c-1.19,1.68-2.17,3.42-3.48,4.86c-3.57,3.94-7.28,7.76-10.94,11.61c-2.11,2.21-3.8,4.61-4.51,7.41&#10;&#9;c-0.3,1.19-0.42,2.46-0.32,3.82c0.3,4.01,2.31,7.06,5.9,8.85c3.43,1.71,6.79,1.16,9.93-0.92c0.35-0.23,0.69-0.48,1.23-0.86&#10;&#9;c-0.67,4.72-2.51,8.5-6.41,11.44h16.49c-0.4-0.52-0.8-1.02-1.21-1.53c-0.94-1.18-1.89-2.36-2.71-3.63&#10;&#9;c-1.18-1.82-1.67-3.94-1.98-6.33c0.4,0.32,0.6,0.47,0.8,0.63c2.85,2.22,6.39,2.72,9.52,1.58c1.37-0.49,2.66-1.3,3.77-2.43&#10;&#9;c1.42-1.43,2.36-3.21,2.79-5.13C667.77,385.46,667.43,382.57,666.08,379.98z"/>
</svg>