<svg xmlns="http://www.w3.org/2000/svg" xmlns:xlink="http://www.w3.org/1999/xlink" version="1.1" id="Layer_1" x="0px" y="0px" style="enable-background:new 0 0 1500 1000;" xml:space="preserve" viewBox="462 277.27 576 444.46">
<style type="text/css">
	.st0{fill:#36E3FF;}
	.st1{fill:#36E3FF;stroke:#36E3FF;stroke-width:2;stroke-miterlimit:10;}
	.st2{fill:#29ABE2;}
	.st3{fill:#F90214;}
</style>
<g>
	<g>
		<path class="st0" d="M486.51,668.48c-8.17,0-16.34,0.07-24.51,0.07v51.99h9.8v-15.3h14.71    C511.98,705.24,511.91,668.48,486.51,668.48z M486.51,696.25H471.8v-18.42h14.71C498.99,677.83,499.06,696.25,486.51,696.25z"/>
		<path class="st0" d="M541.09,667.51c-17.97,0-26.73,13.74-26.73,27.41c0,13.66,8.46,26.81,26.73,26.81    c18.27,0,26.52-13.45,26.67-26.89C567.9,681.25,558.99,667.51,541.09,667.51z M541.09,712.74c-12.25,0-16.86-9.14-17.08-17.68    c-0.22-8.76,4.83-18.64,17.08-18.64c12.26,0,17.16,9.81,17.01,18.57C557.95,703.53,553.35,712.74,541.09,712.74z"/>
		<path class="st0" d="M598.05,693.73l23.1-24.88v-0.3h-12.18l-19.75,21.98v-21.98h-9.81v51.99h9.81v-23.02l21.76,23.02h12.1v-0.6    L598.05,693.73z"/>
		<path class="st0" d="M671.28,678.06v-9.51h-38.92v51.99h38.92v-9.66h-29.19v-11.73h28.15v-9.14h-28.15v-11.95H671.28z"/>
		<path class="st0" d="M713.69,702.12c9.87-2.01,13.14-9.21,13.14-16.34c0-8.99-6.46-17.16-18.71-17.23    c-8.25,0-16.49-0.07-24.74-0.07v52.06h9.81v-17.38h9.43l15.15,17.38h11.66v-0.67L713.69,702.12z M693.19,694.32v-16.64h14.93    c6.16,0,8.91,4.16,8.91,8.32s-2.68,8.32-8.91,8.32H693.19z"/>
		<path class="st0" d="M787.73,702.12c9.88-2.01,13.14-9.21,13.14-16.34c0-8.99-6.46-17.16-18.71-17.23    c-8.25,0-16.49-0.07-24.73-0.07v52.06h9.8v-17.38h9.43l15.15,17.38h11.66v-0.67L787.73,702.12z M767.23,694.32v-16.64h14.93    c6.16,0,8.91,4.16,8.91,8.32s-2.67,8.32-8.91,8.32H767.23z"/>
		<path class="st0" d="M840.6,668.55h-10.69l-23.32,51.99h10.62l4.46-9.81h27.18l4.38,9.81h10.69L840.6,668.55z M825.6,701.6    l9.66-22.13l9.65,22.13H825.6z"/>
		<path class="st0" d="M894.15,668.55h-20.42v51.99h20.42c18.19,0,26.21-13.3,25.99-26.44    C919.92,681.25,911.97,668.55,894.15,668.55z M894.15,711.11h-10.7v-33.28h10.7c11.29,0,16.04,8.1,16.26,16.19    C910.64,702.49,905.96,711.11,894.15,711.11z"/>
		<path class="st0" d="M959.72,668.55h-10.69l-23.32,51.99h10.62l4.46-9.81h27.18l4.38,9.81h10.69L959.72,668.55z M944.72,701.6    l9.66-22.13l9.65,22.13H944.72z"/>
		<path class="st0" d="M1022.26,702.12c9.87-2.01,13.14-9.21,13.14-16.34c0-8.99-6.46-17.16-18.72-17.23    c-8.24,0-16.48-0.07-24.73-0.07v52.06h9.81v-17.38h9.43l15.15,17.38H1038v-0.67L1022.26,702.12z M1001.76,694.32v-16.64h14.92    c6.17,0,8.92,4.16,8.92,8.32s-2.68,8.32-8.92,8.32H1001.76z"/>
	</g>
	<g>
		<path class="st1" d="M914.08,373.48c-8.26-14.47-18.51-27.93-30.61-40.03c-7.2-7.2-14.88-13.75-22.97-19.6    c-31.88-23.11-70.1-35.58-110.24-35.58c-50.32,0-97.63,19.6-133.21,55.18c-35.58,35.58-55.17,82.89-55.17,133.21    s19.59,97.63,55.17,133.21c35.58,35.58,82.89,55.17,133.21,55.17s97.63-19.59,133.21-55.17c35.58-35.58,55.17-82.89,55.17-133.21    C938.64,433.45,930.11,401.56,914.08,373.48z M750.26,652.3c-102.36,0-185.64-83.28-185.64-185.64    c0-102.37,83.28-185.65,185.64-185.65c40.44,0,77.91,13,108.43,35.05c21.59,15.58,39.71,35.7,52.95,58.93    c15.44,27.06,24.26,58.36,24.26,91.67C935.9,569.02,852.62,652.3,750.26,652.3z"/>
	</g>
	<g>
		<path class="st1" d="M883.51,397.57c-0.69-1.33-1.4-2.65-2.13-3.96c-1.26-2.26-2.59-4.48-3.96-6.67c-0.48-0.75-0.96-1.5-1.45-2.25    c-5.63-8.6-12.19-16.68-19.63-24.11c-2.77-2.77-5.63-5.42-8.57-7.94c-3.73-3.2-7.59-6.2-11.57-8.99    c-25.01-17.56-54.75-27.01-85.94-27.01c-36.15,0-70.36,12.7-97.51,36c-2.94,2.52-5.8,5.17-8.57,7.94    c-11.05,11.04-20.16,23.51-27.17,36.99c-10.96,21.08-16.77,44.64-16.77,69.09s5.81,48.01,16.77,69.09    c7.01,13.48,16.12,25.95,27.17,36.99c2.77,2.77,5.63,5.42,8.57,7.94c27.15,23.3,61.36,36,97.51,36c36.15,0,70.36-12.7,97.51-36    c2.94-2.52,5.8-5.17,8.57-7.94c11.05-11.04,20.16-23.51,27.17-36.99c10.96-21.08,16.77-44.64,16.77-69.09    S894.47,418.65,883.51,397.57z M882.01,532.44c-2.94,5.88-6.27,11.53-9.95,16.92c-2.22,3.27-4.58,6.45-7.05,9.52    c-2.28,2.84-4.67,5.58-7.15,8.23c-0.5,0.54-1.01,1.08-1.52,1.61c-3.82,3.98-7.87,7.74-12.12,11.26    c-25.52,21.2-58.28,33.96-93.96,33.96s-68.44-12.76-93.96-33.96c-15.66-12.99-28.59-29.17-37.79-47.54    c-9.94-19.81-15.53-42.15-15.53-65.78s5.59-45.97,15.53-65.78c3.19-6.37,6.83-12.48,10.87-18.28c5.75-8.24,12.32-15.87,19.6-22.76    c2.37-2.25,4.81-4.42,7.32-6.5c25.52-21.2,58.28-33.96,93.96-33.96c31.26,0,60.28,9.79,84.15,26.47c3.37,2.36,6.65,4.86,9.81,7.49    c2.55,2.11,5.03,4.32,7.43,6.6c0.91,0.86,1.81,1.74,2.7,2.63c0,0.01,0,0.01,0,0.01c5.63,5.62,10.8,11.69,15.45,18.16    c1.76,2.43,3.45,4.92,5.05,7.47c1.43,2.26,2.8,4.55,4.11,6.89c1.05,1.9,2.07,3.83,3.05,5.78c9.94,19.81,15.53,42.15,15.53,65.78    S891.95,512.63,882.01,532.44z"/>
	</g>
	<g>
		<path class="st1" d="M854.17,418.83c-1.01-2.2-2.09-4.36-3.24-6.48c-3.27-6.03-7.06-11.74-11.32-17.06    c-3.1-3.87-6.45-7.54-10.01-10.97c-2.91-2.81-5.96-5.46-9.15-7.94c-2.23-1.74-4.53-3.4-6.89-4.96    c-18.14-12.1-39.91-19.16-63.3-19.16c-26.43,0-50.8,9.01-70.19,24.12c-4.59,3.58-8.9,7.49-12.89,11.71    c-2.3,2.42-4.48,4.94-6.56,7.56c-1.98,2.5-3.86,5.08-5.63,7.75c-0.35,0.51-0.68,1.02-1.01,1.53c-2.85,4.43-5.41,9.08-7.63,13.9    c-6.73,14.56-10.49,30.76-10.49,47.83s3.76,33.27,10.49,47.83c2.51,5.45,5.45,10.67,8.76,15.62c3.3,4.94,6.97,9.6,10.99,13.96    c4.29,4.66,8.96,8.97,13.97,12.87c19.39,15.11,43.76,24.12,70.19,24.12s50.8-9.01,70.19-24.12c5.06-3.95,9.79-8.31,14.12-13.03    c0.01-0.01,0.01-0.01,0.02-0.02c0.42-0.45,0.82-0.9,1.21-1.36c0.02-0.01,0.04-0.03,0.06-0.05c3.15-3.55,6.08-7.3,8.77-11.23    c0.32-0.45,0.63-0.91,0.93-1.37c3.25-4.88,6.14-10.02,8.61-15.39c6.73-14.56,10.49-30.76,10.49-47.83S860.9,433.39,854.17,418.83z     M851.15,514.48c-7.35,15.45-18.15,28.96-31.4,39.52c-19.08,15.22-43.25,24.32-69.49,24.32s-50.41-9.1-69.49-24.32    c-5.03-4-9.7-8.44-13.96-13.24c-3.01-3.37-5.81-6.92-8.38-10.64c-3.43-4.94-6.46-10.17-9.06-15.64    c-6.91-14.51-10.77-30.72-10.77-47.82c0-17.1,3.86-33.31,10.77-47.82c7.35-15.45,18.15-28.96,31.4-39.52    C699.85,364.1,724.02,355,750.26,355c22.73,0,43.91,6.83,61.57,18.55c2.73,1.81,5.37,3.73,7.92,5.77c2.52,2,4.94,4.11,7.27,6.33    c0.82,0.77,1.62,1.55,2.42,2.35c7.55,7.6,14.02,16.28,19.14,25.79c0.91,1.66,1.76,3.34,2.57,5.05    c6.91,14.51,10.77,30.72,10.77,47.82C861.92,483.76,858.06,499.97,851.15,514.48z"/>
	</g>
	<g>
		<path class="st0" d="M825.21,428.18c-7.06-13.69-17.76-25.21-30.81-33.26c-12.84-7.94-27.97-12.52-44.14-12.52    c-46.46,0-84.26,37.8-84.26,84.26s37.8,84.26,84.26,84.26c46.46,0,84.26-37.8,84.26-84.26    C834.52,452.81,831.16,439.72,825.21,428.18z M750.26,548.18c-44.95,0-81.52-36.57-81.52-81.52s36.57-81.52,81.52-81.52    c15.52,0,30.04,4.36,42.4,11.92c12.82,7.84,23.32,19.12,30.21,32.55c5.69,11.12,8.91,23.71,8.91,37.05    C831.78,511.61,795.21,548.18,750.26,548.18z"/>
	</g>
	<g>
		<path class="st1" d="M825.21,428.18c-7.06-13.69-17.76-25.21-30.81-33.26c-12.84-7.94-27.97-12.52-44.14-12.52    c-46.46,0-84.26,37.8-84.26,84.26s37.8,84.26,84.26,84.26c46.46,0,84.26-37.8,84.26-84.26    C834.52,452.81,831.16,439.72,825.21,428.18z M750.26,548.18c-44.95,0-81.52-36.57-81.52-81.52s36.57-81.52,81.52-81.52    c15.52,0,30.04,4.36,42.4,11.92c12.82,7.84,23.32,19.12,30.21,32.55c5.69,11.12,8.91,23.71,8.91,37.05    C831.78,511.61,795.21,548.18,750.26,548.18z"/>
	</g>
	<g>
		<path class="st1" d="M783.49,453.85c-3.62-9.37-11.09-16.84-20.47-20.44c-3.96-1.53-8.27-2.37-12.76-2.37    c-19.64,0-35.62,15.98-35.62,35.62s15.98,35.62,35.62,35.62s35.62-15.98,35.62-35.62C785.88,462.15,785.04,457.83,783.49,453.85z     M750.26,499.54c-18.13,0-32.88-14.75-32.88-32.88s14.75-32.88,32.88-32.88c3.83,0,7.51,0.66,10.93,1.87    c9.21,3.26,16.55,10.51,19.93,19.66c1.31,3.54,2.02,7.36,2.02,11.35C783.14,484.79,768.39,499.54,750.26,499.54z"/>
	</g>
	<g>
		<path class="st0" d="M767.16,463.9c-1.32-8.14-8.4-14.37-16.9-14.37c-0.13,0-0.26,0-0.39,0.01c-9.26,0.2-16.74,7.81-16.74,17.12    c0,9.44,7.69,17.12,17.13,17.12s17.13-7.68,17.13-17.12C767.39,465.72,767.31,464.8,767.16,463.9z"/>
	</g>
	<path class="st2" d="M914.08,373.48l-2.44,1.51l-26.39,16.23l-3.87,2.39l-2.42,1.49l-25.57,15.73l-1.5,0.92l-0.96,0.6l-2.35,1.44   l-5.89,3.62l-17.48,10.77l-2.34,1.43l-39.38,24.24l-2.37,1.46l-13.96,8.59l-10.05,6.18l-8.91-18.49l1.67-2.05l11.32-13.89   l1.83-2.24l29.64-36.35l1.74-2.14l17.43-21.37l1.73-2.13l20.85-25.57l1.79-2.2l22.49-27.59l1.81-2.21   c8.09,5.85,15.77,12.4,22.97,19.6C895.57,345.55,905.82,359.01,914.08,373.48z"/>
	<g>
		<g>
			<path class="st3" d="M845.36,360c3.72,8.59,9.75,15.01,18.23,19.06c-4.13,1.53-7.46,4.35-10.57,7.48     c-3.12,3.15-5.83,6.59-7.58,10.64c-3.99-8.15-9.89-14.41-18.16-18.18C835.81,375.14,841.8,368.72,845.36,360z"/>
		</g>
	</g>
	<g>
		<g>
			<path d="M870.98,545.14c-1.5-2.86-3.91-4.51-7.19-4.66c-3.17-0.15-5.71,1.32-8.03,3.35c0.6-0.79,1.34-1.42,2.03-2.08     c2.69-2.56,3.99-5.6,2.77-9.26c-1.12-3.33-3.61-5.15-7.07-5.67c-3.02-0.44-6.03,0.74-7.93,3.06c-0.29,0.35-0.56,0.72-0.79,1.12     c-0.05,0.08-0.09,0.17-0.14,0.25c-1.5,2.79-1.17,6.35,0.92,9.01c0.72,0.9,1.56,1.71,2.35,2.57c0.35,0.38,0.72,0.76,1.07,1.14     c-1.15-0.74-2.19-1.6-3.33-2.31c-3.13-1.97-7.01-1.62-9.78,0.82c-0.02,0.02-0.04,0.04-0.06,0.05c-0.47,0.43-0.87,0.88-1.21,1.36     c-0.01,0.01-0.01,0.01-0.02,0.02c-1.08,1.52-1.57,3.31-1.72,5.27c-0.3,3.76,1.96,7.67,5.37,9.2c3.56,1.61,7.97,0.75,10.54-2.2     c1-1.14,1.74-2.5,2.63-3.83c0.09,6.31-0.86,12.18-6.54,16.37h14.9c-0.7-0.51-1.33-1.05-1.89-1.61c-4.1-4.11-4.68-9.46-4.55-15.09     c1.14,2.65,2.72,4.92,5.38,6.21c2.09,1.01,4.23,1.23,6.32,0.65c0.63-0.18,1.26-0.43,1.88-0.76c3.36-1.77,5.25-5.22,5.17-8.76     C872.04,547.93,871.69,546.49,870.98,545.14z"/>
		</g>
		<g>
			<path class="st3" d="M648,565.55c-3.1-5.38-8-9.15-12.11-13.62c-1.83-1.99-3.7-4.02-5.1-6.3c-3.21-5.24-0.86-12.39,4.64-14.83     c4.93-2.19,10.56-0.18,12.66,4.73c0.1-0.23,0.15-0.36,0.2-0.49c1.81-4.48,7.3-5.75,11.12-4.7c6.43,1.75,9.46,9.42,5.89,15.38     c-1.34,2.23-3.21,4.17-4.99,6.1c-2.68,2.89-5.56,5.59-8.23,8.49C650.61,561.89,649.4,563.72,648,565.55z"/>
		</g>
	</g>
	<path d="M666.08,379.98c-1.71-3.3-4.49-5.7-6.98-8.35c-2.94-3.14-5.83-6.34-8.66-9.59c-0.58-0.66-1.02-1.43-1.46-2.2   c-0.22-0.38-0.44-0.76-0.67-1.12c-1.19,1.68-2.17,3.42-3.48,4.86c-3.57,3.94-7.28,7.76-10.94,11.61c-2.11,2.21-3.8,4.61-4.51,7.41   c-0.3,1.19-0.42,2.46-0.32,3.82c0.3,4.01,2.31,7.06,5.9,8.85c3.43,1.71,6.79,1.16,9.93-0.92c0.35-0.23,0.69-0.48,1.23-0.86   c-0.67,4.72-2.51,8.5-6.41,11.44h16.49c-0.4-0.52-0.8-1.02-1.21-1.53c-0.94-1.18-1.89-2.36-2.71-3.63   c-1.18-1.82-1.67-3.94-1.98-6.33c0.4,0.32,0.6,0.47,0.8,0.63c2.85,2.22,6.39,2.72,9.52,1.58c1.37-0.49,2.66-1.3,3.77-2.43   c1.42-1.43,2.36-3.21,2.79-5.13C667.77,385.46,667.43,382.57,666.08,379.98z"/>
</g>
</svg>